# This file uses centimeters as units for non-parametric coordinates.

mtllib ShelfTest.mtl
g default
v -452.465630 52.501754 25.000000
v 25.000000 52.501754 25.000000
v -452.465630 72.148345 25.000000
v 25.000000 72.148345 25.000000
v -452.465630 72.148345 -72.725737
v 25.000000 72.148345 -72.725737
v -452.465630 52.501754 -72.725737
v 25.000000 52.501754 -72.725737
v -22.746572 52.501754 25.000000
v -22.746572 72.148345 25.000000
v -22.746572 72.148345 -72.725737
v -22.746572 52.501754 -72.725737
v -409.493732 52.501754 25.000000
v -409.493732 72.148345 25.000000
v -409.493732 72.148345 -72.725731
v -409.493732 52.501754 -72.725731
v -42.055306 52.501754 25.000000
v -42.055306 72.148345 25.000000
v -42.055306 72.148345 -72.725737
v -42.055306 52.501754 -72.725737
v -390.742922 52.501754 25.000000
v -390.742922 72.148345 25.000000
v -390.742922 72.148345 -72.725737
v -390.742922 52.501754 -72.725737
v -452.465630 72.148345 -23.862869
v -452.465630 52.501754 -23.862869
v -409.493732 52.501754 -23.862866
v -390.742922 52.501754 -23.862869
v -42.055306 52.501754 -23.862869
v -22.746572 52.501754 -23.862869
v 25.000000 52.501754 -23.862869
v 25.000000 72.148345 -23.862869
v -22.746572 72.148345 -23.862869
v -42.055306 72.148345 -23.862869
v -390.742922 72.148345 -23.862869
v -409.493732 72.148345 -23.862866
v -409.493732 8.109687 25.000000
v -390.742922 8.109687 25.000000
v -42.055306 8.109669 25.000000
v -22.746572 8.109669 25.000000
v -22.746572 30.325858 0.568566
v -42.055306 30.325858 0.568566
v -390.742922 30.325861 0.568566
v -409.493732 30.325861 0.568567
v -409.493732 35.225070 -22.550122
v -409.493732 31.638599 -18.963653
v -409.493732 30.325861 -14.064443
v -409.493732 40.124280 -23.862866
v -390.742922 30.325861 -14.064448
v -390.742922 31.638599 -18.963657
v -390.742922 35.225070 -22.550128
v -390.742922 40.124280 -23.862869
v -42.055306 35.225065 -22.550128
v -42.055306 31.638596 -18.963659
v -42.055306 30.325858 -14.064448
v -42.055306 40.124280 -23.862869
v -22.746572 30.325858 -14.064448
v -22.746572 31.638596 -18.963657
v -22.746572 35.225065 -22.550128
v -22.746572 40.124280 -23.862869
v -22.746572 9.124718 11.655031
v -22.746572 11.995576 7.684840
v -22.746572 16.229341 5.219202
v -22.746572 8.109669 16.448143
v -42.055306 11.995576 7.684840
v -42.055306 9.124718 11.655031
v -42.055306 8.109669 16.448143
v -42.055306 16.229341 5.219202
v -390.742922 9.124724 11.655029
v -390.742922 11.995582 7.684839
v -390.742922 16.229347 5.219201
v -390.742922 8.109687 16.448139
v -409.493732 11.995582 7.684841
v -409.493732 9.124724 11.655032
v -409.493732 8.109687 16.448143
v -409.493732 16.229347 5.219204
vt 0.375000 0.000000
vt 0.625000 0.000000
vt 0.375000 0.250000
vt 0.625000 0.250000
vt 0.375000 0.500000
vt 0.625000 0.500000
vt 0.375000 0.750000
vt 0.625000 0.750000
vt 0.375000 1.000000
vt 0.625000 1.000000
vt 0.875000 0.000000
vt 0.875000 0.250000
vt 0.125000 0.000000
vt 0.125000 0.250000
vt 0.600000 0.000000
vt 0.600000 0.250000
vt 0.600000 0.500000
vt 0.600000 0.750000
vt 0.397500 0.000000
vt 0.397500 1.000000
vt 0.397500 0.250000
vt 0.397500 0.500000
vt 0.397500 0.750000
vt 0.589890 0.000000
vt 0.589890 1.000000
vt 0.589890 0.250000
vt 0.589890 0.500000
vt 0.589890 0.750000
vt 0.407318 0.000000
vt 0.407318 0.250000
vt 0.407318 0.500000
vt 0.407318 0.750000
vt 0.250000 0.250000
vt 0.375000 0.375000
vt 0.250000 0.000000
vt 0.375000 0.875000
vt 0.625000 0.875000
vt 0.750000 0.000000
vt 0.625000 0.375000
vt 0.750000 0.250000
vt 0.600000 0.375000
vt 0.589890 0.375000
vt 0.407318 0.375000
vt 0.397500 0.375000
vt 0.397500 0.937500
vt 0.407318 0.875000
vt 0.589890 0.937500
vt 0.600000 0.875000
vt 0.589890 1.000000
vt 0.397500 1.000000
vt 0.397500 0.900066
vt 0.407318 0.875000
vt 0.589890 0.900066
vt 0.600000 0.875000
vt 0.600000 0.949397
vt 0.589890 0.978123
vt 0.407318 0.949397
vt 0.397500 0.978123
vt 0.600000 0.937500
vt 0.600000 0.900066
vt 0.600000 1.000000
vt 0.600000 1.000000
vt 0.600000 0.978123
vt 0.589890 0.875000
vt 0.589890 0.875000
vt 0.589890 0.949397
vt 0.407318 0.937500
vt 0.407318 0.900066
vt 0.407318 1.000000
vt 0.407318 1.000000
vt 0.407318 0.978123
vt 0.397500 0.875000
vt 0.397500 0.875000
vt 0.397500 0.949397
vt 0.397500 0.883355
vt 0.397500 0.891711
vt 0.407318 0.891711
vt 0.407318 0.883355
vt 0.589890 0.883355
vt 0.589890 0.891711
vt 0.600000 0.891711
vt 0.600000 0.883355
vt 0.600000 0.968548
vt 0.600000 0.958972
vt 0.589890 0.958972
vt 0.589890 0.968548
vt 0.407318 0.968548
vt 0.407318 0.958972
vt 0.397500 0.958972
vt 0.397500 0.968548
vn 0.000000 0.000000 1.000000
vn 0.000000 0.000000 1.000000
vn 0.000000 0.000000 1.000000
vn 0.000000 0.000000 1.000000
vn 0.000000 1.000000 0.000000
vn 0.000000 1.000000 0.000000
vn 0.000000 1.000000 0.000000
vn 0.000000 1.000000 0.000000
vn 0.000000 0.000000 -1.000000
vn 0.000000 0.000000 -1.000000
vn 0.000000 0.000000 -1.000000
vn 0.000000 0.000000 -1.000000
vn 0.000000 -1.000000 0.000000
vn 0.000000 -1.000000 0.000000
vn 0.000000 -1.000000 0.000000
vn 0.000000 -1.000000 0.000000
vn 1.000000 0.000000 0.000000
vn 1.000000 0.000000 0.000000
vn 1.000000 0.000000 0.000000
vn 1.000000 0.000000 0.000000
vn -1.000000 0.000000 0.000000
vn -1.000000 0.000000 0.000000
vn -1.000000 0.000000 0.000000
vn -1.000000 0.000000 0.000000
vn 0.000000 0.000000 1.000000
vn 0.000000 0.000000 1.000000
vn 0.000000 0.000000 1.000000
vn 0.000000 0.000000 1.000000
vn 0.000000 1.000000 0.000000
vn 0.000000 1.000000 0.000000
vn 0.000000 1.000000 0.000000
vn 0.000000 1.000000 0.000000
vn 0.000000 0.000000 -1.000000
vn 0.000000 0.000000 -1.000000
vn 0.000000 0.000000 -1.000000
vn 0.000000 0.000000 -1.000000
vn 0.000000 -1.000000 0.000000
vn 0.000000 -1.000000 0.000000
vn 0.000000 -1.000000 0.000000
vn 0.000000 -1.000000 0.000000
vn 0.000000 0.000000 1.000000
vn 0.000000 0.000000 1.000000
vn 0.000000 1.000000 0.000000
vn 0.000000 1.000000 0.000000
vn 0.000000 0.000000 -1.000000
vn 0.000000 0.000000 -1.000000
vn -0.000000 -0.807299 -0.590143
vn -0.000000 -0.807299 -0.590143
vn -0.000000 -0.997749 -0.067058
vn -0.000000 -0.997749 -0.067058
vn 0.000000 0.000000 1.000000
vn 0.000000 0.000000 1.000000
vn 0.000000 1.000000 0.000000
vn 0.000000 1.000000 0.000000
vn 0.000000 0.000000 -1.000000
vn 0.000000 0.000000 -1.000000
vn 0.000000 -0.807299 -0.590143
vn 0.000000 -0.807299 -0.590143
vn 0.000000 -0.997749 -0.067058
vn 0.000000 -0.997749 -0.067058
vn 0.000000 -1.000000 0.000000
vn 0.000000 -1.000000 0.000000
vn 0.000000 -1.000000 0.000000
vn 0.000000 -1.000000 0.000000
vn -1.000000 0.000000 0.000000
vn -1.000000 0.000000 0.000000
vn 0.000000 -1.000000 0.000000
vn 0.000000 -1.000000 0.000000
vn 0.000000 -1.000000 0.000000
vn 0.000000 -1.000000 0.000000
vn 0.000000 -1.000000 0.000000
vn 0.000000 -1.000000 0.000000
vn 1.000000 0.000000 0.000000
vn 1.000000 0.000000 0.000000
vn 0.000000 1.000000 0.000000
vn 0.000000 1.000000 0.000000
vn 0.000000 1.000000 0.000000
vn 0.000000 1.000000 0.000000
vn 0.000000 1.000000 0.000000
vn 0.000000 1.000000 0.000000
vn -0.000000 0.000000 -1.000000
vn -0.000000 0.000000 -1.000000
vn -0.000000 -0.075765 -0.997126
vn -0.000000 -0.075765 -0.997126
vn 0.000000 0.000000 1.000000
vn 0.000000 0.000000 1.000000
vn 0.000000 0.000000 -1.000000
vn 0.000000 0.000000 -1.000000
vn 0.000000 -0.075765 -0.997126
vn 0.000000 -0.075765 -0.997126
vn 0.000000 0.000000 1.000000
vn 0.000000 0.000000 1.000000
vn 0.000000 -0.361909 -0.932214
vn 0.000000 -0.361909 -0.932214
vn -0.000000 -0.361908 -0.932214
vn -0.000000 -0.361908 -0.932214
vn 0.000000 -1.000000 0.000000
vn 0.000000 -0.997120 -0.075843
vn 0.000000 -0.997120 -0.075843
vn 0.000000 -1.000000 0.000000
vn 0.000000 -1.000000 0.000000
vn -0.000000 -0.997120 -0.075842
vn -0.000000 -0.997120 -0.075842
vn 0.000000 -1.000000 0.000000
vn -0.000000 -0.866025 -0.500000
vn -0.000000 -0.866025 -0.500000
vn -0.000000 -0.500000 -0.866025
vn -0.000000 -0.500000 -0.866025
vn 0.000000 -0.866026 -0.500000
vn 0.000000 -0.866026 -0.500000
vn 0.000000 -0.500000 -0.866025
vn 0.000000 -0.500000 -0.866025
vn 0.000000 -0.671363 -0.741129
vn 0.000000 -0.671363 -0.741129
vn 0.000000 -0.914155 -0.405364
vn 0.000000 -0.914155 -0.405364
vn -0.000000 -0.671362 -0.741129
vn -0.000000 -0.671363 -0.741129
vn -0.000000 -0.914156 -0.405362
vn -0.000000 -0.914156 -0.405362
vn 1.000000 0.000000 0.000000
vn 1.000000 0.000000 0.000000
vn 1.000000 0.000000 0.000000
vn 1.000000 0.000000 0.000000
vn 1.000000 0.000000 0.000000
vn 1.000000 0.000000 0.000000
vn 1.000000 0.000000 0.000000
vn 1.000000 0.000000 0.000000
vn 1.000000 0.000000 0.000000
vn 1.000000 0.000000 0.000000
vn 1.000000 0.000000 0.000000
vn 1.000000 0.000000 0.000000
vn -1.000000 0.000000 0.000000
vn -1.000000 0.000000 0.000000
vn -1.000000 0.000000 0.000000
vn -1.000000 0.000000 0.000000
vn -1.000000 0.000000 0.000000
vn -1.000000 0.000000 0.000000
vn -1.000000 0.000000 0.000000
vn -1.000000 0.000000 0.000000
vn -1.000000 0.000000 0.000000
vn -1.000000 0.000000 0.000000
vn -1.000000 0.000000 0.000000
vn -1.000000 0.000000 0.000000
vn 1.000000 -0.000001 0.000000
vn 1.000000 -0.000001 0.000000
vn 1.000000 -0.000001 0.000000
vn 1.000000 -0.000001 0.000000
vn 1.000000 -0.000001 0.000000
vn 1.000000 -0.000001 0.000000
vn 1.000000 -0.000001 0.000000
vn 1.000000 -0.000001 0.000000
vn 1.000000 -0.000001 0.000000
vn 1.000000 -0.000001 0.000000
vn 1.000000 -0.000001 0.000000
vn 1.000000 -0.000001 0.000000
vn -1.000000 0.000001 0.000000
vn -1.000000 0.000001 0.000000
vn -1.000000 0.000001 0.000000
vn -1.000000 0.000001 0.000000
vn -1.000000 0.000001 0.000000
vn -1.000000 0.000001 0.000000
vn -1.000000 0.000001 0.000000
vn -1.000000 0.000001 0.000000
vn -1.000000 0.000001 0.000000
vn -1.000000 0.000001 0.000000
vn -1.000000 0.000001 0.000000
vn -1.000000 0.000001 0.000000
s 1
g Shelf
usemtl initialShadingGroup
f 1/1/1 13/19/2 14/21/3 3/3/4
s 2
f 3/3/5 14/21/6 36/44/7 25/34/8
s 3
f 5/5/9 15/22/10 16/23/11 7/7/12
s 4
f 26/36/13 27/72/14 13/20/15 1/9/16
s 5
f 2/2/17 31/38/18 32/40/19 4/4/20
s 6
f 25/33/21 26/35/22 1/1/23 3/3/24
s 1
f 10/16/25 9/15/26 2/2/27 4/4/28
s 2
f 32/39/29 33/41/30 10/16/31 4/4/32
s 3
f 12/18/33 11/17/34 6/6/35 8/8/36
s 4
f 9/61/37 30/48/38 31/37/39 2/10/40
s 1
f 14/21/3 13/19/2 21/29/41 22/30/42
s 2
f 35/43/43 36/44/7 14/21/6 22/30/44
s 3
f 16/23/11 15/22/10 23/31/45 24/32/46
s 11
f 43/67/47 44/45/48 47/51/49 49/68/50
s 1
f 18/26/51 17/24/52 9/15/26 10/16/25
s 2
f 33/41/30 34/42/53 18/26/54 10/16/31
s 3
f 20/28/55 19/27/56 11/17/34 12/18/33
s 12
f 41/59/57 42/47/58 55/53/59 57/60/60
s 1
f 22/30/42 21/29/41 17/24/52 18/26/51
s 2
f 34/42/53 35/43/43 22/30/44 18/26/54
s 3
f 24/32/46 23/31/45 19/27/56 20/28/55
s 4
f 21/69/61 28/46/62 29/64/63 17/25/64
s 6
f 7/13/65 26/35/22 25/33/21 5/14/66
s 4
f 7/7/67 16/23/68 27/72/14 26/36/13
f 28/46/62 27/72/14 16/23/68 24/32/69
f 29/64/63 28/46/62 24/32/69 20/28/70
f 30/48/38 29/64/63 20/28/70 12/18/71
f 31/37/39 30/48/38 12/18/71 8/8/72
s 5
f 32/40/19 31/38/18 8/11/73 6/12/74
s 2
f 11/17/75 33/41/30 32/39/29 6/6/76
f 19/27/77 34/42/53 33/41/30 11/17/75
f 23/31/78 35/43/43 34/42/53 19/27/77
f 15/22/79 36/44/7 35/43/43 23/31/78
f 25/34/8 36/44/7 15/22/79 5/5/80
s 11
f 27/72/81 28/46/82 52/52/83 48/73/84
s 1
f 21/69/41 13/20/2 37/50/85 38/70/86
s 12
f 29/64/87 30/48/88 60/54/89 56/65/90
s 1
f 9/61/26 17/25/52 39/49/91 40/62/92
s 12
f 63/55/93 68/66/94 42/47/58 41/59/57
s 11
f 71/57/95 76/74/96 44/45/48 43/67/47
s 12
f 39/49/97 67/56/98 64/63/99 40/62/100
s 11
f 37/50/101 75/58/102 72/71/103 38/70/104
f 47/51/49 46/76/105 50/77/106 49/68/50
f 46/76/105 45/75/107 51/78/108 50/77/106
f 45/75/107 48/73/84 52/52/83 51/78/108
s 12
f 55/53/59 54/80/109 58/81/110 57/60/60
f 54/80/109 53/79/111 59/82/112 58/81/110
f 53/79/111 56/65/90 60/54/89 59/82/112
f 63/55/93 62/84/113 65/85/114 68/66/94
f 62/84/113 61/83/115 66/86/116 65/85/114
f 61/83/115 64/63/99 67/56/98 66/86/116
s 11
f 71/57/95 70/88/117 73/89/118 76/74/96
f 70/88/117 69/87/119 74/90/120 73/89/118
f 69/87/119 72/71/103 75/58/102 74/90/120
s off
f 61/83/121 62/84/122 63/55/123 41/59/124 57/60/125 58/81/126 59/82/127 60/54/128 30/48/129 9/61/130 40/62/131 64/63/132
f 65/85/133 66/86/134 67/56/135 39/49/136 17/25/137 29/64/138 56/65/139 53/79/140 54/80/141 55/53/142 42/47/143 68/66/144
f 69/87/145 70/88/146 71/57/147 43/67/148 49/68/149 50/77/150 51/78/151 52/52/152 28/46/153 21/69/154 38/70/155 72/71/156
f 73/89/157 74/90/158 75/58/159 37/50/160 13/20/161 27/72/162 48/73/163 45/75/164 46/76/165 47/51/166 44/45/167 76/74/168
